#!OML:ASF F:\VICON\USERDATA\INSTALL\rory3\rory3.ASF
:FULLY-SPECIFIED
:DEGREES
241
root 1.21542 22.3502 -16.4382 4.06486 -3.57629 -0.272881
lowerback 11.4481 0.282053 0.707231
upperback 0.438469 0.601154 2.18842
thorax -5.98494 0.30523 1.80079
lowerneck -22.8007 -3.3062 -8.22161
upperneck 11.61 -2.98891 6.19141
head 7.48401 -1.19832 3.00554
rclavicle 5.56597e-015 2.46493e-014
rhumerus -36.1778 3.76276 -84
rradius 57.2547
rwrist -3.38669
rhand -18.6649 20.7382
rfingers 7.12502
rthumb 7.6286 -9.10423
lclavicle 5.56597e-015 2.46493e-014
lhumerus -35.5549 -1.59345 87.2087
lradius 48.5932
lwrist 4.80072
lhand -19.9262 22.3639
lfingers 7.12502
lthumb 6.41108 52.2469
rfemur -15.8525 -1.15722 20.1597
rtibia 31.2578
rfoot 18.7584 -8.72115
rtoes 8.68747
lfemur -14.1526 2.76177 -20.3065
ltibia 31.6246
lfoot 22.0123 -3.73113
ltoes -4.01837
242
root 1.21405 22.5085 -16.4632 3.96293 -3.71622 -0.463198
lowerback 11.715 0.309906 0.801408
upperback 0.507544 0.659728 2.27458
thorax -6.06348 0.332296 1.82844
lowerneck -22.5116 -3.33967 -8.1713
upperneck 11.0209 -3.03572 6.0925
head 7.24278 -1.22937 2.95397
rclavicle 3.97569e-015 -7.15625e-015
rhumerus -35.9987 4.52538 -84.027
rradius 57.5813
rwrist -3.0447
rhand -18.507 21.1453
rfingers 7.12502
rthumb 7.78104 -8.69152
lclavicle 3.97569e-015 -7.15625e-015
lhumerus -35.4716 -1.68549 87.0817
lradius 48.6065
lwrist 4.38754
lhand -20.3342 21.3129
lfingers 7.12502
lthumb 6.0172 51.2075
rfemur -16.0923 -1.13734 20.4917
rtibia 32.1406
rfoot 15.6724 -7.4668
rtoes -2.30416
lfemur -14.5003 3.29913 -20.1067
ltibia 32.893
lfoot 21.5145 -4.19918
ltoes -1.21442
243
root 1.21333 22.6538 -16.4797 3.83838 -3.8536 -0.601045
lowerback 12.044 0.341936 0.685618
upperback 0.445089 0.708675 2.48038
thorax -6.32012 0.363217 2.10354
lowerneck -22.2127 -3.20225 -8.40498
upperneck 11.0106 -2.79856 6.05651
head 7.17632 -1.1346 3.01042
rclavicle 6.26172e-015 0
rhumerus -36.1592 5.23561 -83.81
rradius 57.4546
rwrist -3.21668
rhand -17.6342 22.4426
rfingers 7.12502
rthumb 8.62333 -7.36131
lclavicle 6.26172e-015 0
lhumerus -35.694 -1.65122 87.1482
lradius 48.6607
lwrist 4.12036
lhand -20.1341 22.648
lfingers 7.12502
lthumb 6.21033 52.537
rfemur -16.1779 -1.19855 20.7358
rtibia 32.7801
rfoot 18.1264 -7.5892
rtoes 7.21567
lfemur -14.7136 3.72582 -19.9326
ltibia 33.888
lfoot 21.5983 -5.36309
ltoes -1.45609
244
root 1.21265 22.7843 -16.4928 3.67656 -3.97919 -0.673039
lowerback 12.3131 0.368743 0.476059
upperback 0.408169 0.735511 2.68588
thorax -6.51728 0.38663 2.43584
lowerneck -21.9298 -2.96007 -8.58022
upperneck 11.2585 -2.44111 5.99182
head 7.18673 -0.983984 3.06462
rclavicle -1.44119e-014 1.59028e-015
rhumerus -36.4125 5.94814 -83.6368
rradius 57.7414
rwrist -3.29853
rhand -17.7422 21.7694
rfingers 7.12502
rthumb 8.51916 -8.03879
lclavicle -1.44119e-014 1.59028e-015
lhumerus -35.8495 -1.609 87.2699
lradius 48.5581
lwrist 3.99146
lhand -19.9726 23.506
lfingers 7.12502
lthumb 6.36623 53.3903
rfemur -16.1783 -1.25589 20.8904
rtibia 33.2355
rfoot 17.9663 -7.18942
rtoes 7.7291
lfemur -14.7572 4.13969 -19.8172
ltibia 34.5969
lfoot 21.5674 -6.63207
ltoes -2.46911
245
root 1.21355 22.8995 -16.5038 3.52108 -4.04804 -0.744643
lowerback 12.412 0.448468 0.468148
upperback 0.490707 0.84058 2.69571
thorax -6.48959 0.437819 2.43158
lowerneck -21.7975 -2.85109 -8.26537
upperneck 11.4183 -2.36756 5.77603
head 7.20553 -0.958297 2.9521
rclavicle -2.38542e-015 -1.43125e-014
rhumerus -36.1777 6.11448 -83.5615
rradius 57.5883
rwrist -3.43159
rhand -17.8738 21.0074
rfingers 7.12502
rthumb 8.39214 -8.80586
lclavicle -2.38542e-015 -1.43125e-014
lhumerus -35.7316 -2.03943 87.2399
lradius 48.4347
lwrist 4.06676
lhand -20.2247 23.3257
lfingers 7.12502
lthumb 6.12291 53.2172
rfemur -16.1518 -1.32274 21.0564
rtibia 33.5758
rfoot 17.7395 -6.20578
rtoes 6.46641
lfemur -14.7033 4.31196 -19.6845
ltibia 35.0363
lfoot 21.3002 -7.91891
ltoes -3.4413
246
root 1.21343 22.9929 -16.5169 3.36947 -4.04873 -0.785244
lowerback 12.4794 0.660059 0.689984
upperback 0.417352 1.13767 2.41632
thorax -6.60648 0.572322 1.95675
lowerneck -20.9877 -2.93749 -7.49613
upperneck 11.2949 -2.72409 5.50297
head 7.04491 -1.13024 2.69278
rclavicle -2.98177e-016 1.59028e-015
rhumerus -36.2586 5.39291 -83.6744
rradius 57.2451
rwrist -3.50592
rhand -17.7884 20.9977
rfingers 7.12502
rthumb 8.47456 -8.8123
lclavicle -2.98177e-016 1.59028e-015
lhumerus -35.7955 -3.22583 86.9663
lradius 48.329
lwrist 3.68454
lhand -20.2785 23.6429
lfingers 7.12502
lthumb 6.07095 53.5359
rfemur -16.058 -1.38487 21.1932
rtibia 33.7922
rfoot 17.1667 -5.4037
rtoes 4.93182
lfemur -14.6009 4.21526 -19.5636
ltibia 35.266
lfoot 21.0058 -8.92603
ltoes -3.02075
247
root 1.212 23.0716 -16.5274 3.2979 -4.03021 -0.820169
lowerback 12.4677 0.717158 0.737065
upperback 0.418741 1.21452 2.33717
thorax -6.59787 0.607116 1.83254
lowerneck -20.5633 -2.93404 -7.16608
upperneck 11.2386 -2.81647 5.34351
head 6.95637 -1.18011 2.57619
rclavicle -2.24627e-014 -1.35174e-014
rhumerus -36.1172 5.16989 -83.6852
rradius 56.9417
rwrist -3.48466
rhand -17.3629 20.8668
rfingers 7.12502
rthumb 8.88512 -8.92615
lclavicle -2.24627e-014 -1.35174e-014
lhumerus -35.6829 -3.59336 86.7072
lradius 48.1139
lwrist 3.03756
lhand -20.502 22.9758
lfingers 7.12502
lthumb 5.85517 52.8749
rfemur -16.0067 -1.37963 21.3121
rtibia 33.8941
rfoot 16.1864 -5.10178
rtoes 2.62321
lfemur -14.5191 4.02752 -19.4561
ltibia 35.2873
lfoot 20.5442 -9.5134
ltoes -1.61841
248
root 1.21045 23.1387 -16.5309 3.32895 -3.91529 -0.96746
lowerback 12.2923 0.644834 0.799051
upperback 0.379697 1.13014 2.41956
thorax -6.53913 0.56551 1.90084
lowerneck -20.194 -2.94671 -6.74676
upperneck 11.2555 -2.89222 4.82713
head 6.8917 -1.25029 2.33007
rclavicle 5.36719e-015 2.70347e-014
rhumerus -36.1751 5.30546 -83.6016
rradius 56.8391
rwrist -3.47195
rhand -17.0509 20.7985
rfingers 7.12502
rthumb 9.18618 -8.98143
lclavicle 5.36719e-015 2.70347e-014
lhumerus -35.656 -3.63622 86.6196
lradius 47.8207
lwrist 3.33917
lhand -20.6044 22.5297
lfingers 7.12502
lthumb 5.75626 52.4315
rfemur -16.0134 -1.41434 21.5638
rtibia 33.8502
rfoot 15.0097 -5.06236
rtoes -0.642826
lfemur -14.4601 3.71391 -19.2201
ltibia 35.1462
lfoot 19.9107 -10.0579
ltoes -1.08907
249
root 1.20858 23.1859 -16.5369 3.37601 -3.70197 -0.97832
lowerback 12.195 0.498772 0.699042
upperback 0.244168 0.930841 2.52146
thorax -6.62626 0.473657 2.10157
lowerneck -19.7281 -2.97236 -6.26793
upperneck 11.2301 -2.97782 4.14845
head 6.79357 -1.33751 2.02171
rclavicle 6.06293e-015 7.95139e-016
rhumerus -36.464 5.60621 -83.4737
rradius 56.8696
rwrist -3.47568
rhand -16.9269 20.8033
rfingers 7.12502
rthumb 9.30584 -8.97128
lclavicle 6.06293e-015 7.95139e-016
lhumerus -35.7782 -3.58512 86.6194
lradius 47.5724
lwrist 4.06704
lhand -20.5811 23.0297
lfingers 7.12502
lthumb 5.77876 52.9309
rfemur -16.0039 -1.58838 21.6719
rtibia 33.6053
rfoot 14.595 -5.09973
rtoes -1.30668
lfemur -14.4926 3.28284 -19.1355
ltibia 34.8925
lfoot 19.3301 -11.2288
ltoes -3.94804
250
root 1.20379 23.2217 -16.5423 3.46011 -3.47571 -1.04146
lowerback 12.0307 0.367569 0.606034
upperback 0.186694 0.750703 2.65491
thorax -6.59227 0.391088 2.32777
lowerneck -19.3579 -2.88143 -6.35943
upperneck 11.1857 -2.86337 4.20839
head 6.71488 -1.28521 2.07153
rclavicle -1.86858e-014 -2.46493e-014
rhumerus -36.4203 5.83808 -83.3034
rradius 56.6862
rwrist -3.49654
rhand -16.9298 20.5304
rfingers 7.12502
rthumb 9.30311 -9.24432
lclavicle -1.86858e-014 -2.46493e-014
lhumerus -35.6919 -3.44134 86.5303
lradius 47.332
lwrist 4.17833
lhand -21.107 22.184
lfingers 7.12502
lthumb 5.27102 52.0984
rfemur -15.9048 -1.70154 21.841
rtibia 33.1673
rfoot 14.6011 -5.2468
rtoes 0.208327
lfemur -14.6308 2.79715 -18.9687
ltibia 34.5532
lfoot 18.9472 -11.2211
ltoes -2.55742
251
root 1.2018 23.2551 -16.5417 3.62996 -3.19749 -1.12989
lowerback 11.6987 0.268881 0.649532
upperback 0.0801223 0.624621 2.70537
thorax -6.51389 0.329242 2.37843
lowerneck -18.6264 -2.79905 -6.52935
upperneck 10.9685 -2.79699 4.50013
head 6.52832 -1.24245 2.20532
rclavicle 2.98177e-016 3.10104e-014
rhumerus -36.3638 5.72372 -83.1716
rradius 56.3189
rwrist -3.516
rhand -16.7215 20.3947
rfingers 7.12502
rthumb 9.50409 -9.37101
lclavicle 2.98177e-016 3.10104e-014
lhumerus -35.6802 -3.39928 86.3341
lradius 47.038
lwrist 3.88325
lhand -21.1194 22.1753
lfingers 7.12502
lthumb 5.25904 52.09
rfemur -15.8319 -1.77447 22.013
rtibia 32.5953
rfoot 14.5614 -5.65798
rtoes 2.58716
lfemur -14.7568 2.16552 -18.793
ltibia 34.1083
lfoot 18.3172 -11.4352
ltoes -1.80909
252
root 1.2062 23.2739 -16.5412 3.86918 -2.94961 -1.16992
lowerback 11.3795 0.220118 0.828039
upperback -0.107194 0.577139 2.63605
thorax -6.52823 0.299974 2.21256
lowerneck -17.8778 -2.88994 -6.34384
upperneck 10.7396 -2.99837 4.42888
head 6.33934 -1.34575 2.13368
rclavicle -6.85807e-015 -3.57812e-014
rhumerus -36.5754 5.28603 -83.0749
rradius 56.055
rwrist -3.64046
rhand -16.3658 20.4322
rfingers 7.12502
rthumb 9.84723 -9.31749
lclavicle -6.85807e-015 -3.57812e-014
lhumerus -35.7656 -3.62834 86.1388
lradius 46.7524
lwrist 3.64205
lhand -20.8331 23.829
lfingers 7.12502
lthumb 5.53551 53.7367
rfemur -15.8353 -1.90625 22.1084
rtibia 31.9366
rfoot 14.7104 -5.92008
rtoes 4.7908
lfemur -14.9413 1.57797 -18.7196
ltibia 33.5478
lfoot 17.6896 -11.4878
ltoes -1.43184
253
root 1.20772 23.2745 -16.5411 4.03206 -2.84375 -1.24748
lowerback 11.0722 0.133647 0.904861
upperback -0.00963867 0.466608 2.71552
thorax -6.24791 0.243684 2.26907
lowerneck -18.2552 -2.9134 -6.47505
upperneck 10.9203 -2.97771 4.43108
head 6.4603 -1.33748 2.15583
rclavicle -4.17448e-015 1.27222e-014
rhumerus -36.1417 5.21047 -82.8425
rradius 55.6645
rwrist -3.84736
rhand -16.3556 20.1348
rfingers 7.12502
rthumb 9.85708 -9.61448
lclavicle -4.17448e-015 1.27222e-014
lhumerus -35.1117 -3.44006 85.9852
lradius 46.1873
lwrist 3.67127
lhand -19.9631 25.8655
lfingers 7.12502
lthumb 6.37541 55.7496
rfemur -15.7471 -1.85716 22.2459
rtibia 31.2268
rfoot 14.9164 -6.11712
rtoes 5.99446
lfemur -15.0512 1.15763 -18.6034
ltibia 32.8986
lfoot 17.6484 -12.2855
ltoes -5.94771
254
root 1.20488 23.2663 -16.5387 4.23515 -2.71494 -1.20917
lowerback 10.7097 0.105809 0.838484
upperback -0.0981259 0.412595 2.68409
thorax -6.13527 0.218849 2.28098
lowerneck -18.0279 -2.89124 -6.58543
upperneck 11.1346 -2.97854 4.67342
head 6.49794 -1.32555 2.25445
rclavicle 4.07509e-015 -6.36111e-015
rhumerus -36.1138 4.85146 -82.6974
rradius 55.3439
rwrist -4.00402
rhand -16.5047 19.6597
rfingers 7.12502
rthumb 9.71324 -10.0963
lclavicle 4.07509e-015 -6.36111e-015
lhumerus -34.7145 -3.56484 85.7823
lradius 45.494
lwrist 3.64197
lhand -19.3915 26.1942
lfingers 7.12502
lthumb 6.92724 56.0609
rfemur -15.7253 -1.79389 22.2641
rtibia 30.5259
rfoot 14.9796 -6.27188
rtoes 6.68931
lfemur -15.0634 0.623342 -18.5832
ltibia 32.1499
lfoot 16.27 -10.8416
ltoes -1.46202
255
root 1.20425 23.246 -16.5361 4.4183 -2.45797 -1.13727
lowerback 10.4079 0.0297047 0.817613
upperback -0.21582 0.301161 2.62639
thorax -6.08505 0.164227 2.24869
lowerneck -17.6684 -3.0095 -6.8385
upperneck 11.5316 -3.16094 4.98928
head 6.58713 -1.40382 2.38158
rclavicle -1.68967e-015 7.95139e-016
rhumerus -36.2189 4.43538 -82.5599
rradius 55.1699
rwrist -4.06453
rhand -16.4038 19.1494
rfingers 7.12502
rthumb 9.81056 -10.6021
lclavicle -1.68967e-015 7.95139e-016
lhumerus -34.4633 -3.60797 85.515
lradius 44.8794
lwrist 3.00495
lhand -20.5511 23.9894
lfingers 7.12502
lthumb 5.80778 53.8898
rfemur -15.6444 -1.85652 22.2339
rtibia 29.82
rfoot 14.6892 -6.46792
rtoes 6.59852
lfemur -14.9678 -0.143247 -18.584
ltibia 31.3425
lfoot 15.5422 -9.86492
ltoes -0.822885
